# xmcd CD database file
#
# Track frame offsets:
#	150
#	53089
#	86035
#	122434
#	152322
#	184934
#	208887
#	260844
#	303680
#
# Disc length: 4459 seconds
#
# Revision: 0
# Processed by: cddbd v1.5.2PL0 Copyright (c) Steve Scherf et al.
# Submitted via: CDex 1.70beta2
#
DISCID=7b116909
DTITLE=Oregon - In Performance
DYEAR=1980
DGENRE=Jazz
TTITLE0=Buzzbox
TTITLE1=Along the Way
TTITLE2=Wanderlust
TTITLE3=Deer Path
TTITLE4=Waterwheel
TTITLE5=Drum Solo
TTITLE6=Arion
TTITLE7=Free Piece
TTITLE8=Icarus
EXTD=YEAR: 1980
EXTT0=
EXTT1=
EXTT2=
EXTT3=
EXTT4=
EXTT5=
EXTT6=
EXTT7=
EXTT8=
PLAYORDER=
